<svg width="170" height="52" viewBox="0 0 170 52" fill="none" xmlns="http://www.w3.org/2000/svg">
<path fill-rule="evenodd" clip-rule="evenodd" d="M129.492 0.858276C154.062 0.858276 170 5.62069 170 12.9628V39.5528C170 46.8949 154.062 51.6573 129.492 51.6573H40.5079C15.9375 51.6573 0 46.8949 0 39.5528V12.9628C0 5.62069 15.9375 0.858276 40.5079 0.858276H129.492Z" fill="#2B2D42" fill-opacity="0.5"/>
<path d="M47.2656 26.4375L55.375 29.5781L54.6562 33.75L42.5625 28.0469L43.2031 24.3594L57.2812 18.6562L56.4688 23.2344L47.2656 26.4375ZM71.6719 31.3125H63.7344L61.3906 36H56.3438L68.5 13.25H72.7344L77.0625 36H72.3906L71.6719 31.3125ZM65.6094 27.5156H71.0938L69.8125 19.0469L65.6094 27.5156ZM91.875 29.9219C92.0938 28.6823 91.4844 27.7344 90.0469 27.0781L87.0312 25.875C83.5312 24.3125 81.8698 22.1615 82.0469 19.4219C82.1198 18.151 82.5365 17.026 83.2969 16.0469C84.0573 15.0677 85.125 14.3021 86.5 13.75C87.875 13.1875 89.3594 12.9167 90.9531 12.9375C93.151 12.9792 94.9271 13.6354 96.2812 14.9062C97.6354 16.1667 98.3021 17.8594 98.2812 19.9844H93.7188C93.7708 18.9531 93.5417 18.151 93.0312 17.5781C92.5312 17.0052 91.75 16.7083 90.6875 16.6875C89.6458 16.6667 88.7396 16.9062 87.9688 17.4062C87.1979 17.8958 86.7396 18.5729 86.5938 19.4375C86.3958 20.5729 87.1562 21.474 88.875 22.1406L90.9375 22.9219L92.125 23.4688C95.1979 24.9896 96.6354 27.125 96.4375 29.875C96.3438 31.2188 95.9115 32.3802 95.1406 33.3594C94.3802 34.3281 93.3385 35.0729 92.0156 35.5938C90.7031 36.1146 89.2552 36.3594 87.6719 36.3281C86.0573 36.2969 84.6198 35.9583 83.3594 35.3125C82.099 34.6667 81.1406 33.7552 80.4844 32.5781C79.8698 31.4844 79.5833 30.2344 79.625 28.8281L84.2031 28.8438C84.0573 31.3125 85.2708 32.5677 87.8438 32.6094C88.9583 32.6094 89.875 32.3646 90.5938 31.875C91.3125 31.3854 91.7396 30.7344 91.875 29.9219ZM99.4844 37.9531H96.0156L108.422 13.25H111.906L99.4844 37.9531ZM120.734 26.2031L112.453 23.0312L113.188 18.8906L125.422 24.5938L124.781 28.2656L110.547 33.9844L111.359 29.4219L120.734 26.2031Z" fill="white"/>
</svg>
