<svg width="222" height="51" viewBox="0 0 222 51" fill="none" xmlns="http://www.w3.org/2000/svg">
<path fill-rule="evenodd" clip-rule="evenodd" d="M169.101 0C201.187 0 222 4.78125 222 12.1524V38.8476C222 46.2187 201.187 51 169.101 51H52.8985C20.8125 51 0 46.2187 0 38.8476V12.1524C0 4.78125 20.8125 0 52.8985 0H169.101Z" fill="#2B2D42" fill-opacity="0.5"/>
<path d="M24.8539 26.6035L32.9633 29.7441L32.2445 33.916L20.1508 28.2129L20.7914 24.5254L34.8695 18.8223L34.057 23.4004L24.8539 26.6035ZM50.807 26.8691H42.0883L40.4633 36.166H35.8851L39.8383 13.416H54.2445L53.5726 17.2129H43.7601L42.7289 23.0879H51.4789L50.807 26.8691ZM62.0101 36.166C61.8747 35.7389 61.8174 35.2285 61.8383 34.6348C60.5674 35.9056 59.1299 36.5202 57.5258 36.4785C56.0466 36.4577 54.8174 35.9785 53.8383 35.041C52.8695 34.0931 52.4164 32.9264 52.4789 31.541C52.5518 29.6973 53.3226 28.2858 54.7914 27.3066C56.2705 26.3171 58.2497 25.8223 60.7289 25.8223L62.7914 25.8535L63.0101 24.8379C63.0726 24.4941 63.0883 24.166 63.057 23.8535C63.0049 23.3639 62.8174 22.9837 62.4945 22.7129C62.182 22.4316 61.7653 22.2858 61.2445 22.2754C60.557 22.2546 59.9737 22.4264 59.4945 22.791C59.0153 23.1452 58.708 23.6608 58.5726 24.3379L54.1508 24.3535C54.2237 22.7389 54.9633 21.4316 56.3695 20.4316C57.7862 19.4212 59.531 18.9264 61.6039 18.9473C63.5205 18.9889 65.0205 19.5618 66.1039 20.666C67.1872 21.7598 67.6403 23.1712 67.4633 24.9004L66.1664 32.9941L66.0883 33.9941C66.0674 34.7337 66.156 35.3587 66.3539 35.8691L66.3383 36.166H62.0101ZM58.6195 33.0566C59.8903 33.0983 60.9997 32.5462 61.9476 31.4004L62.4945 28.4785L60.9633 28.4629C59.3383 28.5046 58.1664 28.9993 57.4476 29.9473C57.1872 30.291 57.0258 30.7129 56.9633 31.2129C56.8799 31.7754 56.9945 32.2233 57.307 32.5566C57.6299 32.8796 58.0674 33.0462 58.6195 33.0566ZM78.8383 31.4004C79.0049 30.5671 78.4268 29.9629 77.1039 29.5879L75.682 29.2285C72.3174 28.3014 70.682 26.666 70.7758 24.3223C70.8278 22.7285 71.531 21.4316 72.8851 20.4316C74.2497 19.4212 75.8903 18.9264 77.807 18.9473C79.7133 18.9681 81.2549 19.4733 82.432 20.4629C83.6091 21.4525 84.208 22.7702 84.2289 24.416L79.8539 24.4004C79.8747 22.9525 79.156 22.2181 77.6976 22.1973C77.0101 22.1973 76.4112 22.3691 75.9008 22.7129C75.4008 23.0566 75.0935 23.5202 74.9789 24.1035C74.8226 24.9368 75.4528 25.5254 76.8695 25.8691L77.4945 26.0098C78.932 26.3535 80.031 26.7493 80.7914 27.1973C81.5518 27.6348 82.1351 28.1816 82.5414 28.8379C82.958 29.4941 83.1508 30.2806 83.1195 31.1973C83.0883 32.2702 82.7393 33.2077 82.0726 34.0098C81.4164 34.8118 80.5101 35.4316 79.3539 35.8691C78.208 36.3066 76.9997 36.5098 75.7289 36.4785C73.8539 36.4577 72.2914 35.9212 71.0414 34.8691C69.7914 33.8066 69.156 32.4368 69.1351 30.7598L73.2914 30.791C73.333 32.4056 74.1976 33.2233 75.8851 33.2441C76.6976 33.2441 77.3643 33.0775 77.8851 32.7441C78.4164 32.4108 78.7341 31.9629 78.8383 31.4004ZM94.1039 15.1035L93.3695 19.2598H96.182L95.6039 22.5723H92.7914L91.3539 31.041C91.2914 31.5723 91.333 31.9785 91.4789 32.2598C91.6247 32.541 91.9789 32.6921 92.5414 32.7129C92.708 32.7233 93.156 32.6973 93.8851 32.6348L93.5726 36.0879C92.7914 36.3483 91.9476 36.4681 91.0414 36.4473C89.5935 36.4264 88.5153 35.9733 87.807 35.0879C87.0987 34.2025 86.807 33.0046 86.932 31.4941L88.3851 22.5723H85.9945L86.5726 19.2598H88.9633L89.682 15.1035H94.1039ZM101.338 32.4004H110.995L110.338 36.166H96.1039L100.057 13.416H104.635L101.338 32.4004ZM120.823 36.4785C119.343 36.4681 118.031 36.1087 116.885 35.4004C115.75 34.6816 114.901 33.7025 114.338 32.4629C113.776 31.2129 113.557 29.8379 113.682 28.3379L113.729 27.7129C113.885 26.0671 114.364 24.5566 115.166 23.1816C115.968 21.8066 117 20.7493 118.26 20.0098C119.521 19.2598 120.916 18.9056 122.448 18.9473C124.625 18.9889 126.271 19.791 127.385 21.3535C128.51 22.9056 128.937 24.8743 128.666 27.2598L128.416 29.1816H118.057C118.015 30.2754 118.281 31.1504 118.854 31.8066C119.427 32.4629 120.208 32.8014 121.198 32.8223C122.802 32.8639 124.208 32.2441 125.416 30.9629L127.432 33.4629C126.797 34.4212 125.88 35.1712 124.682 35.7129C123.484 36.2441 122.198 36.4993 120.823 36.4785ZM122.229 22.5879C121.416 22.5671 120.692 22.8223 120.057 23.3535C119.432 23.8848 118.87 24.8066 118.37 26.1191H124.432L124.526 25.7129C124.588 25.2962 124.593 24.9004 124.541 24.5254C124.437 23.9212 124.182 23.4525 123.776 23.1191C123.37 22.7754 122.854 22.5983 122.229 22.5879ZM139.51 36.166C139.375 35.7389 139.317 35.2285 139.338 34.6348C138.067 35.9056 136.63 36.5202 135.026 36.4785C133.547 36.4577 132.317 35.9785 131.338 35.041C130.37 34.0931 129.916 32.9264 129.979 31.541C130.052 29.6973 130.823 28.2858 132.291 27.3066C133.771 26.3171 135.75 25.8223 138.229 25.8223L140.291 25.8535L140.51 24.8379C140.573 24.4941 140.588 24.166 140.557 23.8535C140.505 23.3639 140.317 22.9837 139.995 22.7129C139.682 22.4316 139.265 22.2858 138.745 22.2754C138.057 22.2546 137.474 22.4264 136.995 22.791C136.515 23.1452 136.208 23.6608 136.073 24.3379L131.651 24.3535C131.724 22.7389 132.463 21.4316 133.87 20.4316C135.286 19.4212 137.031 18.9264 139.104 18.9473C141.021 18.9889 142.521 19.5618 143.604 20.666C144.687 21.7598 145.14 23.1712 144.963 24.9004L143.666 32.9941L143.588 33.9941C143.567 34.7337 143.656 35.3587 143.854 35.8691L143.838 36.166H139.51ZM136.12 33.0566C137.39 33.0983 138.5 32.5462 139.448 31.4004L139.995 28.4785L138.463 28.4629C136.838 28.5046 135.666 28.9993 134.948 29.9473C134.687 30.291 134.526 30.7129 134.463 31.2129C134.38 31.7754 134.495 32.2233 134.807 32.5566C135.13 32.8796 135.567 33.0462 136.12 33.0566ZM158.12 23.4941C157.515 23.39 157.021 23.3379 156.635 23.3379C155.062 23.2962 153.817 23.8848 152.901 25.1035L150.948 36.166H146.541L149.479 19.2598L153.62 19.2441L153.213 21.3066C154.276 19.7129 155.588 18.916 157.151 18.916C157.588 18.916 158.099 18.9889 158.682 19.1348L158.12 23.4941ZM165.01 19.2441L164.635 21.2441C165.989 19.6712 167.63 18.9056 169.557 18.9473C171.151 18.9785 172.328 19.5618 173.088 20.6973C173.849 21.8327 174.125 23.4056 173.916 25.416L172.135 36.166H167.729L169.541 25.3691C169.593 24.9629 169.604 24.5931 169.573 24.2598C169.437 23.1973 168.771 22.6504 167.573 22.6191C166.416 22.5775 165.38 23.1139 164.463 24.2285L162.354 36.166H157.948L160.885 19.2598L165.01 19.2441ZM176.76 38.1191H173.291L185.698 13.416H189.182L176.76 38.1191ZM198.01 26.3691L189.729 23.1973L190.463 19.0566L202.698 24.7598L202.057 28.4316L187.823 34.1504L188.635 29.5879L198.01 26.3691Z" fill="white"/>
</svg>
