<svg width="156" height="20" viewBox="0 0 156 20" fill="none" xmlns="http://www.w3.org/2000/svg">
<path d="M3.94922 10.8281L10.0312 13.1836L9.49219 16.3125L0.421875 12.0352L0.902344 9.26953L11.4609 4.99219L10.8516 8.42578L3.94922 10.8281ZM22.2539 14.4844H16.3008L14.543 18H10.7578L19.875 0.9375H23.0508L26.2969 18H22.793L22.2539 14.4844ZM17.707 11.6367H21.8203L20.8594 5.28516L17.707 11.6367ZM32.4727 5.30859L32.1914 6.80859C33.207 5.62891 34.4375 5.05469 35.8828 5.08594C37.0781 5.10938 37.9609 5.54688 38.5312 6.39844C39.1016 7.25 39.3086 8.42969 39.1523 9.9375L37.8164 18H34.5117L35.8711 9.90234C35.9102 9.59766 35.918 9.32031 35.8945 9.07031C35.793 8.27344 35.293 7.86328 34.3945 7.83984C33.5273 7.80859 32.75 8.21094 32.0625 9.04688L30.4805 18H27.1758L29.3789 5.32031L32.4727 5.30859ZM46.7109 5.07422C47.8906 5.10547 48.8438 5.57812 49.5703 6.49219L50.8125 0H54.1289L51.0117 18H48.0586L48.2461 16.6406C47.3008 17.7422 46.1992 18.2773 44.9414 18.2461C44.1523 18.2383 43.4609 18.0312 42.8672 17.625C42.2734 17.2188 41.8125 16.6367 41.4844 15.8789C41.1641 15.1133 40.9883 14.2617 40.957 13.3242C40.9336 12.832 40.9453 12.3555 40.9922 11.8945L41.0625 11.3672C41.25 10.0703 41.6094 8.92969 42.1406 7.94531C42.6797 6.96094 43.3359 6.23047 44.1094 5.75391C44.8906 5.27734 45.7578 5.05078 46.7109 5.07422ZM44.3086 11.8945C44.2461 12.4883 44.2266 12.9883 44.25 13.3945C44.3281 14.7695 44.8828 15.4688 45.9141 15.4922C46.8438 15.5312 47.6523 15.0938 48.3398 14.1797L49.2422 9.14062C48.9375 8.30469 48.3281 7.86719 47.4141 7.82812C46.6094 7.80469 45.9375 8.11719 45.3984 8.76562C44.8672 9.40625 44.5039 10.4492 44.3086 11.8945ZM59.6836 18.2344C58.5742 18.2266 57.5898 17.957 56.7305 17.4258C55.8789 16.8867 55.2422 16.1523 54.8203 15.2227C54.3984 14.2852 54.2344 13.2539 54.3281 12.1289L54.3633 11.6602C54.4805 10.4258 54.8398 9.29297 55.4414 8.26172C56.043 7.23047 56.8164 6.4375 57.7617 5.88281C58.707 5.32031 59.7539 5.05469 60.9023 5.08594C62.5352 5.11719 63.7695 5.71875 64.6055 6.89062C65.4492 8.05469 65.7695 9.53125 65.5664 11.3203L65.3789 12.7617H57.6094C57.5781 13.582 57.7773 14.2383 58.207 14.7305C58.6367 15.2227 59.2227 15.4766 59.9648 15.4922C61.168 15.5234 62.2227 15.0586 63.1289 14.0977L64.6406 15.9727C64.1641 16.6914 63.4766 17.2539 62.5781 17.6602C61.6797 18.0586 60.7148 18.25 59.6836 18.2344ZM60.7383 7.81641C60.1289 7.80078 59.5859 7.99219 59.1094 8.39062C58.6406 8.78906 58.2188 9.48047 57.8438 10.4648H62.3906L62.4609 10.1602C62.5078 9.84766 62.5117 9.55078 62.4727 9.26953C62.3945 8.81641 62.2031 8.46484 61.8984 8.21484C61.5938 7.95703 61.207 7.82422 60.7383 7.81641ZM75.0469 8.49609C74.5938 8.41797 74.2227 8.37891 73.9336 8.37891C72.7539 8.34766 71.8203 8.78906 71.1328 9.70312L69.668 18H66.3633L68.5664 5.32031L71.6719 5.30859L71.3672 6.85547C72.1641 5.66016 73.1484 5.0625 74.3203 5.0625C74.6484 5.0625 75.0312 5.11719 75.4688 5.22656L75.0469 8.49609ZM82.3359 14.4258C82.4609 13.8008 82.0273 13.3477 81.0352 13.0664L79.9688 12.7969C77.4453 12.1016 76.2188 10.875 76.2891 9.11719C76.3281 7.92188 76.8555 6.94922 77.8711 6.19922C78.8945 5.44141 80.125 5.07031 81.5625 5.08594C82.9922 5.10156 84.1484 5.48047 85.0312 6.22266C85.9141 6.96484 86.3633 7.95312 86.3789 9.1875L83.0977 9.17578C83.1133 8.08984 82.5742 7.53906 81.4805 7.52344C80.9648 7.52344 80.5156 7.65234 80.1328 7.91016C79.7578 8.16797 79.5273 8.51562 79.4414 8.95312C79.3242 9.57812 79.7969 10.0195 80.8594 10.2773L81.3281 10.3828C82.4062 10.6406 83.2305 10.9375 83.8008 11.2734C84.3711 11.6016 84.8086 12.0117 85.1133 12.5039C85.4258 12.9961 85.5703 13.5859 85.5469 14.2734C85.5234 15.0781 85.2617 15.7812 84.7617 16.3828C84.2695 16.9844 83.5898 17.4492 82.7227 17.7773C81.8633 18.1055 80.957 18.2578 80.0039 18.2344C78.5977 18.2188 77.4258 17.8164 76.4883 17.0273C75.5508 16.2305 75.0742 15.2031 75.0586 13.9453L78.1758 13.9688C78.207 15.1797 78.8555 15.793 80.1211 15.8086C80.7305 15.8086 81.2305 15.6836 81.6211 15.4336C82.0195 15.1836 82.2578 14.8477 82.3359 14.4258ZM94.3359 5.08594C95.4531 5.10156 96.4141 5.39062 97.2188 5.95312C98.0312 6.50781 98.625 7.27734 99 8.26172C99.3828 9.23828 99.5195 10.3242 99.4102 11.5195C99.2305 13.5352 98.5273 15.168 97.3008 16.418C96.082 17.6602 94.5742 18.2656 92.7773 18.2344C91.6758 18.2188 90.7227 17.9375 89.918 17.3906C89.1133 16.8359 88.5195 16.0703 88.1367 15.0938C87.7539 14.1172 87.6172 13.0391 87.7266 11.8594C87.9297 9.76562 88.6406 8.10156 89.8594 6.86719C91.0781 5.63281 92.5703 5.03906 94.3359 5.08594ZM90.9961 13.0664C91.0117 13.8164 91.1875 14.4102 91.5234 14.8477C91.8594 15.2773 92.332 15.5 92.9414 15.5156C93.957 15.5469 94.7539 15.082 95.332 14.1211C95.9102 13.1523 96.1797 11.8828 96.1406 10.3125C96.1094 9.5625 95.9258 8.96484 95.5898 8.51953C95.2617 8.06641 94.7891 7.83203 94.1719 7.81641C93.1875 7.78516 92.3984 8.25 91.8047 9.21094C91.2188 10.1641 90.9492 11.4492 90.9961 13.0664ZM105.598 5.30859L105.316 6.80859C106.332 5.62891 107.562 5.05469 109.008 5.08594C110.203 5.10938 111.086 5.54688 111.656 6.39844C112.227 7.25 112.434 8.42969 112.277 9.9375L110.941 18H107.637L108.996 9.90234C109.035 9.59766 109.043 9.32031 109.02 9.07031C108.918 8.27344 108.418 7.86328 107.52 7.83984C106.652 7.80859 105.875 8.21094 105.188 9.04688L103.605 18H100.301L102.504 5.32031L105.598 5.30859ZM123.141 13.4414C123.305 12.5117 122.848 11.8008 121.77 11.3086L119.508 10.4062C116.883 9.23438 115.637 7.62109 115.77 5.56641C115.824 4.61328 116.137 3.76953 116.707 3.03516C117.277 2.30078 118.078 1.72656 119.109 1.3125C120.141 0.890625 121.254 0.6875 122.449 0.703125C124.098 0.734375 125.43 1.22656 126.445 2.17969C127.461 3.125 127.961 4.39453 127.945 5.98828H124.523C124.562 5.21484 124.391 4.61328 124.008 4.18359C123.633 3.75391 123.047 3.53125 122.25 3.51562C121.469 3.5 120.789 3.67969 120.211 4.05469C119.633 4.42188 119.289 4.92969 119.18 5.57812C119.031 6.42969 119.602 7.10547 120.891 7.60547L122.438 8.19141L123.328 8.60156C125.633 9.74219 126.711 11.3438 126.562 13.4062C126.492 14.4141 126.168 15.2852 125.59 16.0195C125.02 16.7461 124.238 17.3047 123.246 17.6953C122.262 18.0859 121.176 18.2695 119.988 18.2461C118.777 18.2227 117.699 17.9688 116.754 17.4844C115.809 17 115.09 16.3164 114.598 15.4336C114.137 14.6133 113.922 13.6758 113.953 12.6211L117.387 12.6328C117.277 14.4844 118.188 15.4258 120.117 15.457C120.953 15.457 121.641 15.2734 122.18 14.9062C122.719 14.5391 123.039 14.0508 123.141 13.4414ZM130.289 14.5078C130.812 14.4922 131.258 14.6562 131.625 15C132 15.3359 132.188 15.7617 132.188 16.2773C132.203 16.793 132.031 17.2344 131.672 17.6016C131.312 17.9609 130.871 18.1406 130.348 18.1406C129.824 18.1562 129.383 18 129.023 17.6719C128.664 17.3438 128.477 16.918 128.461 16.3945C128.445 15.8711 128.613 15.4297 128.965 15.0703C129.316 14.7109 129.758 14.5234 130.289 14.5078ZM135.738 19.4648H133.137L142.441 0.9375H145.055L135.738 19.4648ZM151.676 10.6523L145.465 8.27344L146.016 5.16797L155.191 9.44531L154.711 12.1992L144.035 16.4883L144.645 13.0664L151.676 10.6523Z" fill="white"/>
</svg>
