<svg width="295" height="51" viewBox="0 0 295 51" fill="none" xmlns="http://www.w3.org/2000/svg">
<path fill-rule="evenodd" clip-rule="evenodd" d="M224.707 0C267.344 0 295 4.78125 295 12.1524V38.8476C295 46.2187 267.344 51 224.707 51H70.2931C27.6562 51 0 46.2187 0 38.8476V12.1524C0 4.78125 27.6562 0 70.2931 0H224.707Z" fill="#2B2D42" fill-opacity="0.5"/>
<path d="M31.8422 26.4375L39.9516 29.5781L39.2328 33.75L27.1391 28.0469L27.7797 24.3594L41.8578 18.6562L41.0453 23.2344L31.8422 26.4375ZM56.2485 31.3125H48.311L45.9672 36H40.9203L53.0766 13.25H57.311L61.6391 36H56.9672L56.2485 31.3125ZM50.186 27.5156H55.6703L54.3891 19.0469L50.186 27.5156ZM69.8735 19.0781L69.4985 21.0781C70.8526 19.5052 72.4933 18.7396 74.4203 18.7812C76.0141 18.8125 77.1912 19.3958 77.9516 20.5312C78.712 21.6667 78.9881 23.2396 78.7797 25.25L76.9985 36H72.5922L74.4047 25.2031C74.4568 24.7969 74.4672 24.4271 74.436 24.0938C74.3006 23.0312 73.6339 22.4844 72.436 22.4531C71.2797 22.4115 70.2433 22.9479 69.3266 24.0625L67.2172 36H62.811L65.7485 19.0938L69.8735 19.0781ZM88.8578 18.7656C90.4308 18.8073 91.7016 19.4375 92.6703 20.6562L94.3266 12H98.7485L94.5922 36H90.6547L90.9047 34.1875C89.6443 35.6562 88.1756 36.3698 86.4985 36.3281C85.4464 36.3177 84.5245 36.0417 83.7328 35.5C82.9412 34.9583 82.3266 34.1823 81.8891 33.1719C81.462 32.151 81.2276 31.0156 81.186 29.7656C81.1547 29.1094 81.1703 28.474 81.2328 27.8594L81.3266 27.1562C81.5766 25.4271 82.0558 23.9062 82.7641 22.5938C83.4828 21.2812 84.3578 20.3073 85.3891 19.6719C86.4308 19.0365 87.587 18.7344 88.8578 18.7656ZM85.6547 27.8594C85.5714 28.651 85.5453 29.3177 85.5766 29.8594C85.6808 31.6927 86.4203 32.625 87.7953 32.6562C89.0349 32.7083 90.1131 32.125 91.0297 30.9062L92.2328 24.1875C91.8266 23.0729 91.0141 22.4896 89.7953 22.4375C88.7224 22.4062 87.8266 22.8229 87.1078 23.6875C86.3995 24.5417 85.9151 25.9323 85.6547 27.8594ZM106.155 36.3125C104.676 36.3021 103.363 35.9427 102.217 35.2344C101.082 34.5156 100.233 33.5365 99.6703 32.2969C99.1078 31.0469 98.8891 29.6719 99.0141 28.1719L99.061 27.5469C99.2172 25.901 99.6964 24.3906 100.498 23.0156C101.301 21.6406 102.332 20.5833 103.592 19.8438C104.853 19.0938 106.248 18.7396 107.78 18.7812C109.957 18.8229 111.603 19.625 112.717 21.1875C113.842 22.7396 114.269 24.7083 113.998 27.0938L113.748 29.0156H103.389C103.347 30.1094 103.613 30.9844 104.186 31.6406C104.759 32.2969 105.54 32.6354 106.53 32.6562C108.134 32.6979 109.54 32.0781 110.748 30.7969L112.764 33.2969C112.129 34.2552 111.212 35.0052 110.014 35.5469C108.816 36.0781 107.53 36.3333 106.155 36.3125ZM107.561 22.4219C106.748 22.401 106.025 22.6562 105.389 23.1875C104.764 23.7188 104.202 24.6406 103.702 25.9531H109.764L109.858 25.5469C109.92 25.1302 109.926 24.7344 109.873 24.3594C109.769 23.7552 109.514 23.2865 109.108 22.9531C108.702 22.6094 108.186 22.4323 107.561 22.4219ZM126.639 23.3281C126.035 23.224 125.54 23.1719 125.155 23.1719C123.582 23.1302 122.337 23.7188 121.42 24.9375L119.467 36H115.061L117.998 19.0938L122.139 19.0781L121.733 21.1406C122.795 19.5469 124.108 18.75 125.67 18.75C126.108 18.75 126.618 18.8229 127.202 18.9688L126.639 23.3281ZM136.358 31.2344C136.525 30.401 135.946 29.7969 134.623 29.4219L133.202 29.0625C129.837 28.1354 128.202 26.5 128.295 24.1562C128.347 22.5625 129.051 21.2656 130.405 20.2656C131.769 19.2552 133.41 18.7604 135.327 18.7812C137.233 18.8021 138.775 19.3073 139.952 20.2969C141.129 21.2865 141.728 22.6042 141.748 24.25L137.373 24.2344C137.394 22.7865 136.676 22.0521 135.217 22.0312C134.53 22.0312 133.931 22.2031 133.42 22.5469C132.92 22.8906 132.613 23.3542 132.498 23.9375C132.342 24.7708 132.972 25.3594 134.389 25.7031L135.014 25.8438C136.452 26.1875 137.551 26.5833 138.311 27.0312C139.071 27.4688 139.655 28.0156 140.061 28.6719C140.478 29.3281 140.67 30.1146 140.639 31.0312C140.608 32.1042 140.259 33.0417 139.592 33.8438C138.936 34.6458 138.03 35.2656 136.873 35.7031C135.728 36.1406 134.519 36.3438 133.248 36.3125C131.373 36.2917 129.811 35.7552 128.561 34.7031C127.311 33.6406 126.676 32.2708 126.655 30.5938L130.811 30.625C130.853 32.2396 131.717 33.0573 133.405 33.0781C134.217 33.0781 134.884 32.9115 135.405 32.5781C135.936 32.2448 136.254 31.7969 136.358 31.2344ZM152.358 18.7812C153.847 18.8021 155.129 19.1875 156.202 19.9375C157.285 20.6771 158.077 21.7031 158.577 23.0156C159.087 24.3177 159.269 25.7656 159.123 27.3594C158.884 30.0469 157.946 32.224 156.311 33.8906C154.686 35.5469 152.676 36.3542 150.28 36.3125C148.811 36.2917 147.54 35.9167 146.467 35.1875C145.394 34.4479 144.603 33.4271 144.092 32.125C143.582 30.8229 143.4 29.3854 143.545 27.8125C143.816 25.0208 144.764 22.8021 146.389 21.1562C148.014 19.5104 150.004 18.7188 152.358 18.7812ZM147.905 29.4219C147.926 30.4219 148.16 31.2135 148.608 31.7969C149.056 32.3698 149.686 32.6667 150.498 32.6875C151.853 32.7292 152.915 32.1094 153.686 30.8281C154.457 29.5365 154.816 27.8438 154.764 25.75C154.722 24.75 154.478 23.9531 154.03 23.3594C153.592 22.7552 152.962 22.4427 152.139 22.4219C150.827 22.3802 149.775 23 148.983 24.2812C148.202 25.5521 147.842 27.2656 147.905 29.4219ZM167.373 19.0781L166.998 21.0781C168.353 19.5052 169.993 18.7396 171.92 18.7812C173.514 18.8125 174.691 19.3958 175.452 20.5312C176.212 21.6667 176.488 23.2396 176.28 25.25L174.498 36H170.092L171.905 25.2031C171.957 24.7969 171.967 24.4271 171.936 24.0938C171.801 23.0312 171.134 22.4844 169.936 22.4531C168.78 22.4115 167.743 22.9479 166.827 24.0625L164.717 36H160.311L163.248 19.0938L167.373 19.0781ZM190.764 29.9219C190.983 28.6823 190.373 27.7344 188.936 27.0781L185.92 25.875C182.42 24.3125 180.759 22.1615 180.936 19.4219C181.009 18.151 181.426 17.026 182.186 16.0469C182.946 15.0677 184.014 14.3021 185.389 13.75C186.764 13.1875 188.248 12.9167 189.842 12.9375C192.04 12.9792 193.816 13.6354 195.17 14.9062C196.525 16.1667 197.191 17.8594 197.17 19.9844H192.608C192.66 18.9531 192.431 18.151 191.92 17.5781C191.42 17.0052 190.639 16.7083 189.577 16.6875C188.535 16.6667 187.629 16.9062 186.858 17.4062C186.087 17.8958 185.629 18.5729 185.483 19.4375C185.285 20.5729 186.045 21.474 187.764 22.1406L189.827 22.9219L191.014 23.4688C194.087 24.9896 195.525 27.125 195.327 29.875C195.233 31.2188 194.801 32.3802 194.03 33.3594C193.269 34.3281 192.228 35.0729 190.905 35.5938C189.592 36.1146 188.144 36.3594 186.561 36.3281C184.946 36.2969 183.509 35.9583 182.248 35.3125C180.988 34.6667 180.03 33.7552 179.373 32.5781C178.759 31.4844 178.472 30.2344 178.514 28.8281L183.092 28.8438C182.946 31.3125 184.16 32.5677 186.733 32.6094C187.847 32.6094 188.764 32.3646 189.483 31.875C190.202 31.3854 190.629 30.7344 190.764 29.9219ZM201.873 36H197.436L200.373 19.0938H204.811L201.873 36ZM200.889 14.7969C200.868 14.099 201.097 13.5208 201.577 13.0625C202.056 12.6042 202.634 12.375 203.311 12.375C203.978 12.3542 204.556 12.5573 205.045 12.9844C205.535 13.4115 205.79 13.9635 205.811 14.6406C205.832 15.2865 205.613 15.849 205.155 16.3281C204.707 16.8073 204.118 17.0573 203.389 17.0781C202.733 17.099 202.155 16.901 201.655 16.4844C201.165 16.0677 200.91 15.5052 200.889 14.7969ZM210.28 36H205.842L210.014 12H214.436L210.28 36ZM221.139 30.4219L225.952 19.0938H230.702L222.53 36H218.311L215.42 19.0938H219.889L221.139 30.4219ZM239.405 36C239.269 35.5729 239.212 35.0625 239.233 34.4688C237.962 35.7396 236.525 36.3542 234.92 36.3125C233.441 36.2917 232.212 35.8125 231.233 34.875C230.264 33.9271 229.811 32.7604 229.873 31.375C229.946 29.5312 230.717 28.1198 232.186 27.1406C233.665 26.151 235.644 25.6562 238.123 25.6562L240.186 25.6875L240.405 24.6719C240.467 24.3281 240.483 24 240.452 23.6875C240.4 23.1979 240.212 22.8177 239.889 22.5469C239.577 22.2656 239.16 22.1198 238.639 22.1094C237.952 22.0885 237.368 22.2604 236.889 22.625C236.41 22.9792 236.103 23.4948 235.967 24.1719L231.545 24.1875C231.618 22.5729 232.358 21.2656 233.764 20.2656C235.181 19.2552 236.926 18.7604 238.998 18.7812C240.915 18.8229 242.415 19.3958 243.498 20.5C244.582 21.5938 245.035 23.0052 244.858 24.7344L243.561 32.8281L243.483 33.8281C243.462 34.5677 243.551 35.1927 243.748 35.7031L243.733 36H239.405ZM236.014 32.8906C237.285 32.9323 238.394 32.3802 239.342 31.2344L239.889 28.3125L238.358 28.2969C236.733 28.3385 235.561 28.8333 234.842 29.7812C234.582 30.125 234.42 30.5469 234.358 31.0469C234.275 31.6094 234.389 32.0573 234.702 32.3906C235.025 32.7135 235.462 32.8802 236.014 32.8906ZM247.592 37.9531H244.123L256.53 13.25H260.014L247.592 37.9531ZM268.842 26.2031L260.561 23.0312L261.295 18.8906L273.53 24.5938L272.889 28.2656L258.655 33.9844L259.467 29.4219L268.842 26.2031Z" fill="white"/>
</svg>
