<svg width="138" height="20" viewBox="0 0 138 20" fill="none" xmlns="http://www.w3.org/2000/svg">
<path d="M3.94922 10.8281L10.0312 13.1836L9.49219 16.3125L0.421875 12.0352L0.902344 9.26953L11.4609 4.99219L10.8516 8.42578L3.94922 10.8281ZM23.4141 11.0273H16.875L15.6562 18H12.2227L15.1875 0.9375H25.9922L25.4883 3.78516H18.1289L17.3555 8.19141H23.918L23.4141 11.0273ZM31.8164 18C31.7148 17.6797 31.6719 17.2969 31.6875 16.8516C30.7344 17.8047 29.6562 18.2656 28.4531 18.2344C27.3438 18.2188 26.4219 17.8594 25.6875 17.1562C24.9609 16.4453 24.6211 15.5703 24.668 14.5312C24.7227 13.1484 25.3008 12.0898 26.4023 11.3555C27.5117 10.6133 28.9961 10.2422 30.8555 10.2422L32.4023 10.2656L32.5664 9.50391C32.6133 9.24609 32.625 9 32.6016 8.76562C32.5625 8.39844 32.4219 8.11328 32.1797 7.91016C31.9453 7.69922 31.6328 7.58984 31.2422 7.58203C30.7266 7.56641 30.2891 7.69531 29.9297 7.96875C29.5703 8.23438 29.3398 8.62109 29.2383 9.12891L25.9219 9.14062C25.9766 7.92969 26.5312 6.94922 27.5859 6.19922C28.6484 5.44141 29.957 5.07031 31.5117 5.08594C32.9492 5.11719 34.0742 5.54688 34.8867 6.375C35.6992 7.19531 36.0391 8.25391 35.9062 9.55078L34.9336 15.6211L34.875 16.3711C34.8594 16.9258 34.9258 17.3945 35.0742 17.7773L35.0625 18H31.8164ZM29.2734 15.668C30.2266 15.6992 31.0586 15.2852 31.7695 14.4258L32.1797 12.2344L31.0312 12.2227C29.8125 12.2539 28.9336 12.625 28.3945 13.3359C28.1992 13.5938 28.0781 13.9102 28.0312 14.2852C27.9688 14.707 28.0547 15.043 28.2891 15.293C28.5312 15.5352 28.8594 15.6602 29.2734 15.668ZM44.4375 14.4258C44.5625 13.8008 44.1289 13.3477 43.1367 13.0664L42.0703 12.7969C39.5469 12.1016 38.3203 10.875 38.3906 9.11719C38.4297 7.92188 38.957 6.94922 39.9727 6.19922C40.9961 5.44141 42.2266 5.07031 43.6641 5.08594C45.0938 5.10156 46.25 5.48047 47.1328 6.22266C48.0156 6.96484 48.4648 7.95312 48.4805 9.1875L45.1992 9.17578C45.2148 8.08984 44.6758 7.53906 43.582 7.52344C43.0664 7.52344 42.6172 7.65234 42.2344 7.91016C41.8594 8.16797 41.6289 8.51562 41.543 8.95312C41.4258 9.57812 41.8984 10.0195 42.9609 10.2773L43.4297 10.3828C44.5078 10.6406 45.332 10.9375 45.9023 11.2734C46.4727 11.6016 46.9102 12.0117 47.2148 12.5039C47.5273 12.9961 47.6719 13.5859 47.6484 14.2734C47.625 15.0781 47.3633 15.7812 46.8633 16.3828C46.3711 16.9844 45.6914 17.4492 44.8242 17.7773C43.9648 18.1055 43.0586 18.2578 42.1055 18.2344C40.6992 18.2188 39.5273 17.8164 38.5898 17.0273C37.6523 16.2305 37.1758 15.2031 37.1602 13.9453L40.2773 13.9688C40.3086 15.1797 40.957 15.793 42.2227 15.8086C42.832 15.8086 43.332 15.6836 43.7227 15.4336C44.1211 15.1836 44.3594 14.8477 44.4375 14.4258ZM55.8867 2.20312L55.3359 5.32031H57.4453L57.0117 7.80469H54.9023L53.8242 14.1562C53.7773 14.5547 53.8086 14.8594 53.918 15.0703C54.0273 15.2812 54.293 15.3945 54.7148 15.4102C54.8398 15.418 55.1758 15.3984 55.7227 15.3516L55.4883 17.9414C54.9023 18.1367 54.2695 18.2266 53.5898 18.2109C52.5039 18.1953 51.6953 17.8555 51.1641 17.1914C50.6328 16.5273 50.4141 15.6289 50.5078 14.4961L51.5977 7.80469H49.8047L50.2383 5.32031H52.0312L52.5703 2.20312H55.8867ZM61.3125 15.1758H68.5547L68.0625 18H57.3867L60.3516 0.9375H63.7852L61.3125 15.1758ZM75.9258 18.2344C74.8164 18.2266 73.832 17.957 72.9727 17.4258C72.1211 16.8867 71.4844 16.1523 71.0625 15.2227C70.6406 14.2852 70.4766 13.2539 70.5703 12.1289L70.6055 11.6602C70.7227 10.4258 71.082 9.29297 71.6836 8.26172C72.2852 7.23047 73.0586 6.4375 74.0039 5.88281C74.9492 5.32031 75.9961 5.05469 77.1445 5.08594C78.7773 5.11719 80.0117 5.71875 80.8477 6.89062C81.6914 8.05469 82.0117 9.53125 81.8086 11.3203L81.6211 12.7617H73.8516C73.8203 13.582 74.0195 14.2383 74.4492 14.7305C74.8789 15.2227 75.4648 15.4766 76.207 15.4922C77.4102 15.5234 78.4648 15.0586 79.3711 14.0977L80.8828 15.9727C80.4062 16.6914 79.7188 17.2539 78.8203 17.6602C77.9219 18.0586 76.957 18.25 75.9258 18.2344ZM76.9805 7.81641C76.3711 7.80078 75.8281 7.99219 75.3516 8.39062C74.8828 8.78906 74.4609 9.48047 74.0859 10.4648H78.6328L78.7031 10.1602C78.75 9.84766 78.7539 9.55078 78.7148 9.26953C78.6367 8.81641 78.4453 8.46484 78.1406 8.21484C77.8359 7.95703 77.4492 7.82422 76.9805 7.81641ZM89.9414 18C89.8398 17.6797 89.7969 17.2969 89.8125 16.8516C88.8594 17.8047 87.7812 18.2656 86.5781 18.2344C85.4688 18.2188 84.5469 17.8594 83.8125 17.1562C83.0859 16.4453 82.7461 15.5703 82.793 14.5312C82.8477 13.1484 83.4258 12.0898 84.5273 11.3555C85.6367 10.6133 87.1211 10.2422 88.9805 10.2422L90.5273 10.2656L90.6914 9.50391C90.7383 9.24609 90.75 9 90.7266 8.76562C90.6875 8.39844 90.5469 8.11328 90.3047 7.91016C90.0703 7.69922 89.7578 7.58984 89.3672 7.58203C88.8516 7.56641 88.4141 7.69531 88.0547 7.96875C87.6953 8.23438 87.4648 8.62109 87.3633 9.12891L84.0469 9.14062C84.1016 7.92969 84.6562 6.94922 85.7109 6.19922C86.7734 5.44141 88.082 5.07031 89.6367 5.08594C91.0742 5.11719 92.1992 5.54688 93.0117 6.375C93.8242 7.19531 94.1641 8.25391 94.0312 9.55078L93.0586 15.6211L93 16.3711C92.9844 16.9258 93.0508 17.3945 93.1992 17.7773L93.1875 18H89.9414ZM87.3984 15.668C88.3516 15.6992 89.1836 15.2852 89.8945 14.4258L90.3047 12.2344L89.1562 12.2227C87.9375 12.2539 87.0586 12.625 86.5195 13.3359C86.3242 13.5938 86.2031 13.9102 86.1562 14.2852C86.0938 14.707 86.1797 15.043 86.4141 15.293C86.6562 15.5352 86.9844 15.6602 87.3984 15.668ZM103.898 8.49609C103.445 8.41797 103.074 8.37891 102.785 8.37891C101.605 8.34766 100.672 8.78906 99.9844 9.70312L98.5195 18H95.2148L97.418 5.32031L100.523 5.30859L100.219 6.85547C101.016 5.66016 102 5.0625 103.172 5.0625C103.5 5.0625 103.883 5.11719 104.32 5.22656L103.898 8.49609ZM109.066 5.30859L108.785 6.80859C109.801 5.62891 111.031 5.05469 112.477 5.08594C113.672 5.10938 114.555 5.54688 115.125 6.39844C115.695 7.25 115.902 8.42969 115.746 9.9375L114.41 18H111.105L112.465 9.90234C112.504 9.59766 112.512 9.32031 112.488 9.07031C112.387 8.27344 111.887 7.86328 110.988 7.83984C110.121 7.80859 109.344 8.21094 108.656 9.04688L107.074 18H103.77L105.973 5.32031L109.066 5.30859ZM117.879 19.4648H115.277L124.582 0.9375H127.195L117.879 19.4648ZM133.816 10.6523L127.605 8.27344L128.156 5.16797L137.332 9.44531L136.852 12.1992L126.176 16.4883L126.785 13.0664L133.816 10.6523Z" fill="white"/>
</svg>
