<svg width="84" height="26" viewBox="0 0 84 26" fill="none" xmlns="http://www.w3.org/2000/svg">
<path d="M5.26562 14.4375L13.375 17.5781L12.6562 21.75L0.5625 16.0469L1.20312 12.3594L15.2812 6.65625L14.4688 11.2344L5.26562 14.4375ZM29.6719 19.3125H21.7344L19.3906 24H14.3438L26.5 1.25H30.7344L35.0625 24H30.3906L29.6719 19.3125ZM23.6094 15.5156H29.0938L27.8125 7.04688L23.6094 15.5156ZM49.875 17.9219C50.0938 16.6823 49.4844 15.7344 48.0469 15.0781L45.0312 13.875C41.5312 12.3125 39.8698 10.1615 40.0469 7.42188C40.1198 6.15104 40.5365 5.02604 41.2969 4.04688C42.0573 3.06771 43.125 2.30208 44.5 1.75C45.875 1.1875 47.3594 0.916667 48.9531 0.9375C51.151 0.979167 52.9271 1.63542 54.2812 2.90625C55.6354 4.16667 56.3021 5.85938 56.2812 7.98438H51.7188C51.7708 6.95312 51.5417 6.15104 51.0312 5.57812C50.5312 5.00521 49.75 4.70833 48.6875 4.6875C47.6458 4.66667 46.7396 4.90625 45.9688 5.40625C45.1979 5.89583 44.7396 6.57292 44.5938 7.4375C44.3958 8.57292 45.1562 9.47396 46.875 10.1406L48.9375 10.9219L50.125 11.4688C53.1979 12.9896 54.6354 15.125 54.4375 17.875C54.3438 19.2188 53.9115 20.3802 53.1406 21.3594C52.3802 22.3281 51.3385 23.0729 50.0156 23.5938C48.7031 24.1146 47.2552 24.3594 45.6719 24.3281C44.0573 24.2969 42.6198 23.9583 41.3594 23.3125C40.099 22.6667 39.1406 21.7552 38.4844 20.5781C37.8698 19.4844 37.5833 18.2344 37.625 16.8281L42.2031 16.8438C42.0573 19.3125 43.2708 20.5677 45.8438 20.6094C46.9583 20.6094 47.875 20.3646 48.5938 19.875C49.3125 19.3854 49.7396 18.7344 49.875 17.9219ZM57.4844 25.9531H54.0156L66.4219 1.25H69.9062L57.4844 25.9531ZM78.7344 14.2031L70.4531 11.0312L71.1875 6.89062L83.4219 12.5938L82.7812 16.2656L68.5469 21.9844L69.3594 17.4219L78.7344 14.2031Z" fill="white"/>
</svg>
